<svg xmlns="http://www.w3.org/2000/svg" viewBox="0 0 89.97 38.17"><defs><style>.cls-1{fill:#f8fffe;}</style></defs><title>Asset 1</title><g id="Layer_2" data-name="Layer 2"><g id="Layer_1-2" data-name="Layer 1"><path class="cls-1" d="M21.12,11.5A12.27,12.27,0,0,1,22.82,5,10.34,10.34,0,0,1,30,.36,11.35,11.35,0,0,1,40.46,3.44a9.07,9.07,0,0,1,2.63,5.27,14.53,14.53,0,0,1-.25,6.75,9.73,9.73,0,0,1-6.75,6.78,11.59,11.59,0,0,1-11.57-2.19,9.06,9.06,0,0,1-3.14-5.91C21.25,13.24,21.21,12.37,21.12,11.5Zm11.15.68a.64.64,0,0,0,.7-.71.66.66,0,0,0-.67-.7.64.64,0,0,0-.71.7A.61.61,0,0,0,32.27,12.18Z"/><path class="cls-1" d="M66.68,11.5a11.63,11.63,0,0,1-1.45,6.21,10.24,10.24,0,0,1-6.81,4.78,11.43,11.43,0,0,1-10.67-2.6,9.15,9.15,0,0,1-3-5.62A14.31,14.31,0,0,1,45.18,7,9.86,9.86,0,0,1,52.35.58,12.67,12.67,0,0,1,55.66,0,12.76,12.76,0,0,1,61,1.35a9.79,9.79,0,0,1,5.59,8.26l.1,1C66.68,10.89,66.68,11.22,66.68,11.5Zm-10.38,0a.69.69,0,0,0-.67-.77.68.68,0,0,0-.74.7.62.62,0,0,0,.64.71A.65.65,0,0,0,56.3,11.54Z"/><path class="cls-1" d="M12.09,23a33.19,33.19,0,0,1-4.24-.32,9.34,9.34,0,0,1-6.59-4.44A10.52,10.52,0,0,1,0,13.63a18.8,18.8,0,0,1,.55-6.3A9.79,9.79,0,0,1,6.72.9,11.75,11.75,0,0,1,11.38,0c1.13,0,2.28,0,3.41.1,2.57.29,3.76,2.09,3.12,4.63a3.84,3.84,0,0,1-4,3.18H11.35c-3,0-5.2,2.28-4.18,5.75a3.75,3.75,0,0,0,3.92,2.86h2c.51,0,.8-.29.77-.74s-.26-.68-.8-.68c-.78,0-1.55,0-2.32-.06a2.4,2.4,0,0,1-2.41-2.51A5,5,0,0,1,8.56,11a2.17,2.17,0,0,1,2.18-1.61c2.15,0,4.34-.09,6.49,0a2.82,2.82,0,0,1,2.86,3.08c0,1.7.06,3.37,0,5.08-.1,2-1.19,4.62-4,5.2a6.42,6.42,0,0,1-1.12.13c-1,0-1.9,0-2.86,0Z"/><path class="cls-1" d="M11,33.93c-.49.9-1,1.64-2.19,1.64S7.14,34.73,6.5,34v.83a9.24,9.24,0,0,1-.13,1.41A2.55,2.55,0,0,1,3.16,38a2.35,2.35,0,0,1-2-2.48V28.24a2.38,2.38,0,0,1,1.54-2.5,3,3,0,0,1,3.37.74c.81.86,1.61,1.73,2.41,2.57a1.55,1.55,0,0,0,.23.19c.71-.74,1.41-1.48,2.09-2.22A3.84,3.84,0,0,1,13,25.55a2.64,2.64,0,0,1,3.28,2.66v7.13A2.35,2.35,0,0,1,15,37.72a2.83,2.83,0,0,1-3.12-.32,2.48,2.48,0,0,1-.83-2c0-.49,0-1,0-1.42C11,34,11,34,11,33.93Z"/><path class="cls-1" d="M35.93,34.83A10.32,10.32,0,0,1,35.8,36a2.47,2.47,0,0,1-2.67,2.06A2.34,2.34,0,0,1,30.6,35.7c0-2.57,0-5.14,0-7.75a2.27,2.27,0,0,1,1.51-2.18,2.63,2.63,0,0,1,2.89.35c.8.71,1.54,1.51,2.28,2.28.13.13.26.33.38.45l.17-.06c0-.16,0-.35,0-.51a2.43,2.43,0,0,1,2.34-2.77,2.49,2.49,0,0,1,2.89,2.25c.07,2.67,0,5.34,0,8A2.42,2.42,0,0,1,41,38a3.14,3.14,0,0,1-2.86-1c-.61-.58-1.18-1.22-1.79-1.86A1.44,1.44,0,0,1,35.93,34.83Z"/><path class="cls-1" d="M62.66,35a9.29,9.29,0,0,1-.16,1.19,2.55,2.55,0,0,1-2.57,1.93A2.42,2.42,0,0,1,57.39,36a6.15,6.15,0,0,1-.06-.74V28.34a2.43,2.43,0,0,1,2.28-2.73,2.56,2.56,0,0,1,3,2.34c0,.36,0,.71,0,1.07,0,.09,0,.22,0,.25.35.42.8.13,1.22.19.1,0,.29-.19.32-.32,0-.32,0-.67,0-1a2.57,2.57,0,0,1,3.44-2.48,2.27,2.27,0,0,1,1.8,2.22q0,3.9,0,7.84a2.41,2.41,0,0,1-2.63,2.35,2.37,2.37,0,0,1-2.61-2.41,1,1,0,0,0,0-.45c0-.1-.16-.26-.22-.26C63.53,34.93,63.08,35,62.66,35Z"/><path class="cls-1" d="M83.42,33.19a2,2,0,0,0,.61.19c1.12,0,2.28,0,3.4,0a2.22,2.22,0,0,1,2.51,2.19A2.14,2.14,0,0,1,88.14,38a43.22,43.22,0,0,1-5.46,0,5,5,0,0,1-4.24-3.31,7,7,0,0,1,.13-6,5.26,5.26,0,0,1,5-3.15q2.07,0,4.14,0a2.11,2.11,0,0,1,2.22,2.34,2.09,2.09,0,0,1-2.19,2.32H84.16a1.87,1.87,0,0,0-.74.22c0,.07,0,.13,0,.19.16,0,.32,0,.48,0,1.22,0,2.44,0,3.7,0s1.28.83,1.15,1.54a.89.89,0,0,1-1,.74H83.48A.48.48,0,0,0,83.42,33.19Z"/><path class="cls-1" d="M51.77,25.55H53.5A2.65,2.65,0,0,1,56.2,29,2.37,2.37,0,0,1,53.6,31H50.32c-.57,0-.86.26-.86.77a.77.77,0,0,0,.86.84c1.06,0,2.16,0,3.22,0A2.64,2.64,0,0,1,56.2,36a2.21,2.21,0,0,1-2.28,2.06,32.74,32.74,0,0,1-5-.1,5,5,0,0,1-4.3-3.6,7.06,7.06,0,0,1,.51-6.2,5.23,5.23,0,0,1,4.76-2.63c.61,0,1.22,0,1.83,0Z"/><path class="cls-1" d="M29.6,30.33a25.25,25.25,0,0,1-.22,3.15,5.29,5.29,0,0,1-4.47,4.37,6.06,6.06,0,0,1-6.27-2,5.94,5.94,0,0,1-1.25-3.76c0-1.32,0-2.61,0-3.92A2.48,2.48,0,0,1,20,25.55a2.47,2.47,0,0,1,2.66,2.57c0,1.22,0,2.44,0,3.69a.76.76,0,1,0,1.51,0V28.4a2.5,2.5,0,0,1,2.45-2.82A2.59,2.59,0,0,1,29.54,28c0,.77,0,1.57,0,2.34Z"/><path class="cls-1" d="M76.54,31.87v3.19a3,3,0,0,1-6,.12c-.06-2.21,0-4.43,0-6.61a2.78,2.78,0,0,1,2.09-2.8A3,3,0,0,1,76,26.86a3.72,3.72,0,0,1,.48,1.51c.06,1.13,0,2.32,0,3.5Z"/><path class="cls-1" d="M13.09,25.58a3.8,3.8,0,0,0-2.19,1.48c-.67.73-1.38,1.47-2.09,2.21a.72.72,0,0,1-.22-.19c-.81-.87-1.64-1.7-2.41-2.57a3.08,3.08,0,0,0-3.38-.74,2.38,2.38,0,0,0-1.54,2.51v7.23a2.35,2.35,0,0,0,2,2.47,2.57,2.57,0,0,0,3.21-1.7,9.37,9.37,0,0,0,.13-1.42,5.75,5.75,0,0,0,0-.83c.65.74,1.13,1.57,2.28,1.57s1.64-.77,2.13-1.67c0,0,.06,0,.12.07,0,.48,0,1,0,1.41a2.56,2.56,0,0,0,.84,2,2.82,2.82,0,0,0,3.12.32,2.31,2.31,0,0,0,1.31-2.37V28.24A2.64,2.64,0,0,0,13.09,25.58Z"/><path class="cls-1" d="M40.17,25.61a2.42,2.42,0,0,0-2.34,2.76c0,.16,0,.36,0,.52l-.16.06a2.74,2.74,0,0,0-.38-.45c-.74-.77-1.48-1.54-2.28-2.28a2.59,2.59,0,0,0-2.9-.35,2.29,2.29,0,0,0-1.51,2.18c0,2.57,0,5.14,0,7.74a2.41,2.41,0,0,0,2.54,2.38,2.47,2.47,0,0,0,2.67-2.05,8.73,8.73,0,0,0,.16-1.29,1.92,1.92,0,0,1,.35.35c.61.61,1.16,1.26,1.8,1.87a3.22,3.22,0,0,0,2.86,1,2.43,2.43,0,0,0,2.12-2.22c0-2.67.07-5.33,0-8A2.52,2.52,0,0,0,40.17,25.61Z"/><path class="cls-1" d="M29.54,28a2.56,2.56,0,0,0-2.86-2.41,2.52,2.52,0,0,0-2.45,2.82v3.44a.76.76,0,1,1-1.51,0c0-1.22,0-2.44,0-3.69A2.49,2.49,0,0,0,20,25.55a2.5,2.5,0,0,0-2.64,2.6c0,1.31,0,2.6,0,3.92a5.66,5.66,0,0,0,1.25,3.76,6.11,6.11,0,0,0,6.27,2,5.28,5.28,0,0,0,4.47-4.37,20.58,20.58,0,0,0,.22-3.15h-.06C29.54,29.56,29.57,28.76,29.54,28Z"/><path class="cls-1" d="M7.85,22.72a39.72,39.72,0,0,0,4.24.29v-.1H15a5.82,5.82,0,0,0,1.12-.13c2.83-.58,3.92-3.21,4-5.2.1-1.67.06-3.38,0-5.08a2.78,2.78,0,0,0-2.86-3.08c-2.15-.13-4.34-.1-6.49,0A2.21,2.21,0,0,0,8.56,11a4,4,0,0,0-.2,1.54A2.43,2.43,0,0,0,10.77,15c.77.06,1.54.06,2.32.06.54,0,.77.23.8.68a.67.67,0,0,1-.77.74h-2a3.77,3.77,0,0,1-3.92-2.86c-1-3.47,1.16-5.79,4.18-5.75h2.54a3.86,3.86,0,0,0,4-3.18C18.55,2.22,17.36.39,14.79.1,13.66,0,12.51,0,11.38,0A11.65,11.65,0,0,0,6.72.9,10,10,0,0,0,.59,7.36,18.84,18.84,0,0,0,0,13.66a9.83,9.83,0,0,0,1.22,4.62A9.12,9.12,0,0,0,7.85,22.72Z"/><path class="cls-1" d="M87.27,19.38A12.46,12.46,0,0,0,89.71,9.19a12.08,12.08,0,0,0-2.82-6A9.92,9.92,0,0,0,79.37.07c-2.09-.07-4.21,0-6.3,0a4.86,4.86,0,0,0-3.66,1.51,6.38,6.38,0,0,0-1.61,4.3c0,1.87,0,3.79,0,5.69v5.94a3.31,3.31,0,0,0,.07.55,5.31,5.31,0,0,0,5.4,4.88c1.28,0,2.57,0,3.85,0a36.65,36.65,0,0,0,4.21-.19A8.46,8.46,0,0,0,87.27,19.38Zm-7.84-5.21a1.14,1.14,0,0,1-.16.48c-.13.16-.32.36-.45.32a.8.8,0,0,1-.51-.41c-.1-.13-.07-.36-.07-.55,0-.8,0-1.7,0-2.57V8.9c0-.16,0-.38.07-.48a1.36,1.36,0,0,1,.57-.48c.1,0,.39.22.45.38a5.19,5.19,0,0,1,.26,1.19A17.33,17.33,0,0,1,79.43,14.17Z"/><path class="cls-1" d="M76,26.83a3,3,0,0,0-3.44-1.09,2.73,2.73,0,0,0-2.09,2.79c0,2.22-.06,4.44,0,6.62a2.82,2.82,0,0,0,3,2.93,2.86,2.86,0,0,0,3-3.06V31.87c0-1.18,0-2.37,0-3.53A3.72,3.72,0,0,0,76,26.83Z"/><path class="cls-1" d="M50.32,31H53.6A2.37,2.37,0,0,0,56.2,29a2.65,2.65,0,0,0-2.7-3.4H51.77c-.61,0-1.22,0-1.83,0a5.23,5.23,0,0,0-4.76,2.63,7,7,0,0,0-.51,6.2A5.11,5.11,0,0,0,49,38a32.74,32.74,0,0,0,5,.1A2.23,2.23,0,0,0,56.2,36a2.64,2.64,0,0,0-2.66-3.37c-1.06,0-2.16,0-3.22,0-.57,0-.9-.33-.86-.84S49.78,31,50.32,31Z"/><path class="cls-1" d="M89.94,35.6a2.23,2.23,0,0,0-2.51-2.18H84c-.23-.07-.42-.16-.61-.23,0-.06,0-.13.06-.19h4.34a.91.91,0,0,0,1-.74c.13-.71,0-1.57-1.15-1.54s-2.45,0-3.7,0l-.48,0c0-.07,0-.13,0-.2a3.84,3.84,0,0,1,.74-.22c1.18,0,2.41,0,3.59,0A2.12,2.12,0,0,0,89.94,28a2.13,2.13,0,0,0-2.22-2.34q-2.07,0-4.14,0a5.26,5.26,0,0,0-5,3.15,7,7,0,0,0-.13,6A4.94,4.94,0,0,0,82.68,38a39.76,39.76,0,0,0,5.46,0A2.13,2.13,0,0,0,89.94,35.6Z"/><path class="cls-1" d="M67.61,25.67a2.56,2.56,0,0,0-3.44,2.48,5.38,5.38,0,0,1,0,1c0,.13-.23.32-.32.32-.42-.06-.87.23-1.22-.19,0-.06,0-.19,0-.25V28a2.54,2.54,0,0,0-3-2.34,2.43,2.43,0,0,0-2.28,2.73v6.94a6.15,6.15,0,0,0,.06.74,2.42,2.42,0,0,0,2.54,2.06,2.55,2.55,0,0,0,2.57-1.93A4.3,4.3,0,0,0,62.66,35h1.25c.1,0,.2.16.23.26a2.08,2.08,0,0,1,0,.45,2.63,2.63,0,0,0,5.24.06c0-2.6,0-5.2,0-7.84A2.3,2.3,0,0,0,67.61,25.67Z"/><path class="cls-1" d="M43.09,8.68a9,9,0,0,0-2.63-5.27A11.44,11.44,0,0,0,30,.32a10.35,10.35,0,0,0-7.13,4.6,12.73,12.73,0,0,0-1.7,6.58c.09.87.13,1.74.26,2.61A9.33,9.33,0,0,0,24.52,20,11.57,11.57,0,0,0,36.09,22.2a9.77,9.77,0,0,0,6.75-6.78A14.48,14.48,0,0,0,43.09,8.68ZM32.27,12.29a1,1,0,1,1,1-1A1,1,0,0,1,32.27,12.29Z"/></g></g></svg>